<?xml version="1.0" encoding="utf-8"?>
<!-- Generator: Adobe Illustrator 27.0.0, SVG Export Plug-In . SVG Version: 6.00 Build 0)  -->
<svg version="1.1" id="Слой_2" xmlns="http://www.w3.org/2000/svg" xmlns:xlink="http://www.w3.org/1999/xlink" x="0px" y="0px"
	 viewBox="0 0 500 500" style="enable-background:new 0 0 500 500;" xml:space="preserve">
<style type="text/css">
	.st0{fill:none;stroke:#000000;stroke-width:60;stroke-miterlimit:10;}
	.st1{fill:none;stroke:#000000;stroke-width:10;stroke-miterlimit:10;}
</style>
<g id="XMLID_00000178926952017779979330000001776248018460858267_">
	<g>
		<path d="M250.2,30.32c121.46,0,219.92,98.46,219.92,219.92c-11.58,291.72-428.3,291.64-439.84,0
			C30.28,128.78,128.74,30.32,250.2,30.32z M400.8,285.33v-35.48v-35.18H285.48V99.36c-17.69,0-53.28,0-70.96,0v115.31H99.2v35.18
			v0.3v35.18h58.3h57.02v115.31c17.69,0,53.28,0,70.96,0V285.33H400.8z"/>
	</g>
	<g>
		<path class="st0" d="M250.2,30.32c121.46,0,219.92,98.46,219.92,219.92c-11.58,291.72-428.3,291.64-439.84,0
			C30.28,128.78,128.74,30.32,250.2,30.32z"/>
		<path class="st1" d="M157.5,285.33h57.02v115.31c17.69,0,53.28,0,70.96,0V285.33H400.8v-35.48v-35.18H285.48V99.36
			c-17.69,0-53.28,0-70.96,0v115.31H99.2v35.18v0.3v35.18H157.5z"/>
	</g>
</g>
</svg>
