<svg width="470" height="333" xmlns="http://www.w3.org/2000/svg" xml:space="preserve" version="1.1">

 <g>
  <title>Layer 1</title>
  <g id="svg_12">
   <circle id="svg_1" stroke-miterlimit="10" stroke-width="10" stroke="#000000" fill="none" r="58.5" cy="64.5" cx="238.5" class="st0"/>
   <line id="svg_2" stroke-miterlimit="10" stroke-width="10" stroke="#000000" fill="none" y2="282" x2="93" y1="95.4" x1="188.8" class="st0"/>
   <line id="svg_3" stroke-miterlimit="10" stroke-width="10" stroke="#000000" fill="none" y2="282" x2="385" y1="95" x1="289" class="st0"/>
   <g id="svg_4">
    <polygon id="svg_5" stroke-miterlimit="10" stroke="#000000" points="413.1000061035156,331.3999938964844 407.1000061035156,331.3999938964844 440.1000061035156,283.3999938964844 446.1000061035156,283.3999938964844 " class="st1"/>
    <polygon id="svg_6" stroke-miterlimit="10" stroke="#000000" points="173.89999389648438,331.3999938964844 167.89999389648438,331.3999938964844 200.89999389648438,283.3999938964844 206.89999389648438,283.3999938964844 " class="st1"/>
    <polygon id="svg_7" stroke-miterlimit="10" stroke="#000000" points="254.60000610351562,331.3999938964844 248.60000610351562,331.3999938964844 281.6000061035156,283.3999938964844 287.6000061035156,283.3999938964844 " class="st1"/>
    <polygon id="svg_8" stroke-miterlimit="10" stroke="#000000" points="333,331.29998779296875 327,331.29998779296875 360,283.29998779296875 366,283.29998779296875 " class="st1"/>
    <polygon id="svg_9" stroke-miterlimit="10" stroke="#000000" points="93.30000305175781,331.3999938964844 87.30000305175781,331.3999938964844 120.30000305175781,283.3999938964844 126.30000305175781,283.3999938964844 " class="st1"/>
    <polygon id="svg_10" stroke-miterlimit="10" stroke="#000000" points="12.700000762939453,331.3999938964844 6.700000762939453,331.3999938964844 39.70000076293945,283.3999938964844 45.70000076293945,283.3999938964844 " class="st1"/>
    <line id="svg_11" stroke-miterlimit="10" stroke-width="10" stroke="#000000" fill="none" y2="282.4" x2="467.6" y1="282.4" x1="2.9" class="st0"/>
   </g>
  </g>
 </g>
</svg>