<svg width="268" height="30" viewBox="0 0 268 30" fill="none" xmlns="http://www.w3.org/2000/svg">
<path d="M0.92 29V28.16L1.56 27.96C2.12 27.7467 2.49333 27.4667 2.68 27.12C2.89333 26.7733 3 26.3067 3 25.72C3.02667 24.2 3.04 22.68 3.04 21.16C3.04 19.6133 3.04 18.0667 3.04 16.52V15.08C3.04 13.5333 3.02667 12 3 10.48C3 8.93333 3 7.38667 3 5.84C3 5.2 2.90667 4.72 2.72 4.4C2.53333 4.05333 2.14667 3.78667 1.56 3.6L0.92 3.4V2.56H12.2C15.4 2.56 17.72 3.16 19.16 4.36C20.6 5.53333 21.32 7.02667 21.32 8.84C21.32 10.2267 20.8133 11.48 19.8 12.6C18.7867 13.6933 17.0133 14.48 14.48 14.96C17.4133 15.28 19.5333 16.04 20.84 17.24C22.1467 18.44 22.8 19.9067 22.8 21.64C22.8 22.4933 22.6133 23.36 22.24 24.24C21.8667 25.0933 21.2267 25.88 20.32 26.6C19.44 27.32 18.24 27.9067 16.72 28.36C15.2 28.7867 13.28 29 10.96 29H0.92ZM8.72 14.68H10.6C12.4133 14.68 13.72 14.28 14.52 13.48C15.3467 12.6533 15.76 11.2533 15.76 9.28C15.76 7.22666 15.3867 5.78667 14.64 4.96C13.8933 4.13333 12.72 3.72 11.12 3.72H8.72V14.68ZM8.72 27.84H10.92C12.92 27.84 14.4133 27.3467 15.4 26.36C16.3867 25.3733 16.88 23.7867 16.88 21.6C16.88 19.4933 16.4 18.0133 15.44 17.16C14.5067 16.28 12.96 15.84 10.8 15.84H8.72V27.84ZM33.1853 9.2C34.8653 9.2 36.3053 9.54667 37.5053 10.24C38.7053 10.9333 39.6253 11.8933 40.2653 13.12C40.932 14.32 41.2653 15.7067 41.2653 17.28C41.2653 17.6267 41.252 17.96 41.2253 18.28C41.1986 18.5733 41.1453 18.8533 41.0653 19.12H29.0253C29.052 21.8667 29.5586 23.84 30.5453 25.04C31.5586 26.24 33.0253 26.84 34.9453 26.84C36.2786 26.84 37.3586 26.6267 38.1853 26.2C39.012 25.7467 39.772 25.12 40.4653 24.32L41.1053 24.92C40.3053 26.3867 39.212 27.5333 37.8253 28.36C36.4653 29.16 34.8386 29.56 32.9453 29.56C31.052 29.56 29.3853 29.16 27.9453 28.36C26.5053 27.56 25.372 26.4133 24.5453 24.92C23.7453 23.4 23.3453 21.5867 23.3453 19.48C23.3453 17.2933 23.812 15.44 24.7453 13.92C25.7053 12.4 26.932 11.24 28.4253 10.44C29.9453 9.61333 31.532 9.2 33.1853 9.2ZM32.9853 10.36C32.212 10.36 31.532 10.5867 30.9453 11.04C30.3853 11.4667 29.932 12.24 29.5853 13.36C29.2653 14.4533 29.0786 16 29.0253 18H36.1853C36.4786 15.3067 36.372 13.36 35.8653 12.16C35.3586 10.96 34.3986 10.36 32.9853 10.36ZM47.3072 29.56C45.7872 29.56 44.4939 29.1333 43.4272 28.28C42.3872 27.4 41.8672 26.1467 41.8672 24.52C41.8672 23.24 42.4805 22.0667 43.7072 21C44.9605 19.9067 46.9205 19.1067 49.5872 18.6C50.0405 18.4933 50.5605 18.4 51.1472 18.32C51.7605 18.2133 52.3605 18.1067 52.9472 18V15.16C52.9472 13.3467 52.7205 12.0933 52.2672 11.4C51.8139 10.7067 51.0939 10.36 50.1072 10.36H49.9872C49.3739 10.36 48.8805 10.56 48.5072 10.96C48.1605 11.3333 47.9339 11.96 47.8272 12.84L47.7072 13.36C47.6272 14.4267 47.3472 15.2133 46.8672 15.72C46.3872 16.2 45.7872 16.44 45.0672 16.44C44.4005 16.44 43.8405 16.24 43.3872 15.84C42.9605 15.4133 42.7472 14.8667 42.7472 14.2C42.7472 13.1067 43.1205 12.1867 43.8672 11.44C44.6139 10.6933 45.6005 10.1333 46.8272 9.76C48.0805 9.38667 49.4272 9.2 50.8672 9.2C53.2405 9.2 55.0539 9.77333 56.3072 10.92C57.5605 12.0667 58.1872 13.9333 58.1872 16.52V25.44C58.1872 26.5867 58.7339 27.16 59.8272 27.16H60.7472L61.1472 27.6C60.6672 28.2133 60.1339 28.68 59.5472 29C58.9605 29.3467 58.1605 29.52 57.1472 29.52C56.0005 29.52 55.0805 29.2533 54.3872 28.72C53.7205 28.16 53.2805 27.4267 53.0672 26.52C52.2139 27.4267 51.3739 28.16 50.5472 28.72C49.7205 29.28 48.6405 29.56 47.3072 29.56ZM49.6272 27C50.1605 27 50.6672 26.88 51.1472 26.64C51.6272 26.4 52.2272 26 52.9472 25.44V19.04C52.2539 19.1467 51.5472 19.28 50.8272 19.44C49.6805 19.7067 48.7472 20.2 48.0272 20.92C47.3339 21.64 46.9872 22.6133 46.9872 23.84C46.9872 24.9067 47.2272 25.7067 47.7072 26.24C48.2139 26.7467 48.8539 27 49.6272 27ZM60.3369 29V28.2L61.2169 27.96C61.6435 27.8267 61.9235 27.64 62.0569 27.4C62.1902 27.1333 62.2702 26.7867 62.2969 26.36V18.44C62.2969 17.56 62.2969 16.8133 62.2969 16.2C62.2969 15.5867 62.2835 14.8667 62.2569 14.04C62.2569 13.5867 62.1902 13.24 62.0569 13C61.9235 12.7333 61.6302 12.5467 61.1769 12.44L60.3369 12.24V11.52L66.8169 9.2L67.2969 9.64L67.5769 12.32C68.5102 11.4667 69.5502 10.7333 70.6969 10.12C71.8435 9.50667 73.0169 9.2 74.2169 9.2C75.5502 9.2 76.5902 9.46667 77.3369 10C78.0835 10.5333 78.6569 11.3467 79.0569 12.44C80.0702 11.4267 81.1902 10.64 82.4169 10.08C83.6435 9.49333 84.8569 9.2 86.0569 9.2C87.8702 9.2 89.2302 9.65333 90.1369 10.56C91.0435 11.4667 91.4969 12.8933 91.4969 14.84V26.4C91.4969 27.2533 91.8702 27.7867 92.6169 28L93.3769 28.2V29H84.3769V28.2L85.0969 28C85.8169 27.76 86.1769 27.2133 86.1769 26.36V14.64C86.1769 13.4933 85.9635 12.72 85.5369 12.32C85.1369 11.8933 84.4702 11.68 83.5369 11.68C82.8169 11.68 82.1369 11.8267 81.4969 12.12C80.8569 12.4133 80.1502 12.8667 79.3769 13.48C79.5369 14.28 79.6169 15.2 79.6169 16.24V26.4C79.6435 26.8533 79.7235 27.2133 79.8569 27.48C80.0169 27.72 80.3102 27.8933 80.7369 28L81.4169 28.2V29H72.3769V28.2L73.2169 27.96C73.6435 27.8267 73.9235 27.64 74.0569 27.4C74.2169 27.1333 74.2969 26.7867 74.2969 26.36V14.68C74.2969 13.5867 74.0969 12.8133 73.6969 12.36C73.2969 11.9067 72.6169 11.68 71.6569 11.68C70.4302 11.68 69.1102 12.2667 67.6969 13.44V26.4C67.6969 27.28 68.0702 27.8133 68.8169 28L69.4969 28.2V29H60.3369Z" fill="black"/>
<path d="M114.373 29.68C111.787 29.68 109.453 29.1467 107.373 28.08C105.293 27.0133 103.64 25.44 102.413 23.36C101.213 21.28 100.613 18.7467 100.613 15.76C100.613 13.52 100.973 11.5333 101.693 9.8C102.44 8.06667 103.453 6.61333 104.733 5.44C106.04 4.24 107.533 3.34667 109.213 2.76C110.893 2.14667 112.68 1.84 114.573 1.84C116.04 1.84 117.413 2.01333 118.693 2.36C119.973 2.68 121.2 3.16 122.373 3.8L122.533 9.04H121.453L119.773 5.88C119.507 5.34667 119.213 4.86667 118.893 4.44C118.6 4.01333 118.213 3.70666 117.733 3.52C117.067 3.2 116.28 3.04 115.373 3.04C113.8 3.04 112.36 3.44 111.053 4.24C109.773 5.04 108.747 6.37333 107.973 8.24C107.2 10.08 106.813 12.6 106.813 15.8C106.813 18.9733 107.173 21.4933 107.893 23.36C108.64 25.2267 109.64 26.56 110.893 27.36C112.147 28.1333 113.56 28.52 115.133 28.52C115.853 28.52 116.44 28.4667 116.893 28.36C117.347 28.2533 117.8 28.1067 118.253 27.92C118.787 27.7067 119.2 27.4 119.493 27C119.787 26.5733 120.04 26.0933 120.253 25.56L121.773 21.92H122.853L122.693 27.68C121.547 28.32 120.28 28.8133 118.893 29.16C117.507 29.5067 116 29.68 114.373 29.68ZM128.915 29.56C127.395 29.56 126.102 29.1333 125.035 28.28C123.995 27.4 123.475 26.1467 123.475 24.52C123.475 23.24 124.088 22.0667 125.315 21C126.568 19.9067 128.528 19.1067 131.195 18.6C131.648 18.4933 132.168 18.4 132.755 18.32C133.368 18.2133 133.968 18.1067 134.555 18V15.16C134.555 13.3467 134.328 12.0933 133.875 11.4C133.422 10.7067 132.702 10.36 131.715 10.36H131.595C130.982 10.36 130.488 10.56 130.115 10.96C129.768 11.3333 129.542 11.96 129.435 12.84L129.315 13.36C129.235 14.4267 128.955 15.2133 128.475 15.72C127.995 16.2 127.395 16.44 126.675 16.44C126.008 16.44 125.448 16.24 124.995 15.84C124.568 15.4133 124.355 14.8667 124.355 14.2C124.355 13.1067 124.728 12.1867 125.475 11.44C126.222 10.6933 127.208 10.1333 128.435 9.76C129.688 9.38667 131.035 9.2 132.475 9.2C134.848 9.2 136.662 9.77333 137.915 10.92C139.168 12.0667 139.795 13.9333 139.795 16.52V25.44C139.795 26.5867 140.342 27.16 141.435 27.16H142.355L142.755 27.6C142.275 28.2133 141.742 28.68 141.155 29C140.568 29.3467 139.768 29.52 138.755 29.52C137.608 29.52 136.688 29.2533 135.995 28.72C135.328 28.16 134.888 27.4267 134.675 26.52C133.822 27.4267 132.982 28.16 132.155 28.72C131.328 29.28 130.248 29.56 128.915 29.56ZM131.235 27C131.768 27 132.275 26.88 132.755 26.64C133.235 26.4 133.835 26 134.555 25.44V19.04C133.862 19.1467 133.155 19.28 132.435 19.44C131.288 19.7067 130.355 20.2 129.635 20.92C128.942 21.64 128.595 22.6133 128.595 23.84C128.595 24.9067 128.835 25.7067 129.315 26.24C129.822 26.7467 130.462 27 131.235 27ZM142.142 29V28.24L142.742 28.08C143.622 27.7867 144.062 27.12 144.062 26.08C144.062 25.1733 144.062 24.2667 144.062 23.36C144.089 22.4267 144.102 21.5067 144.102 20.6V5.4C144.102 4.84 144.009 4.42667 143.822 4.16C143.635 3.86667 143.275 3.65333 142.742 3.52L142.142 3.36V2.6L149.142 0.919999L149.662 1.28L149.502 6.92V26.08C149.529 26.6133 149.635 27.0533 149.822 27.4C150.035 27.72 150.395 27.9467 150.902 28.08L151.462 28.24V29H142.142ZM161.473 29.56C159.659 29.56 158.019 29.1733 156.553 28.4C155.086 27.6 153.926 26.4533 153.073 24.96C152.246 23.44 151.833 21.6 151.833 19.44C151.833 17.28 152.299 15.44 153.233 13.92C154.166 12.4 155.406 11.24 156.953 10.44C158.526 9.61333 160.246 9.2 162.113 9.2C163.633 9.2 164.926 9.45333 165.993 9.96C167.059 10.4667 167.873 11.12 168.433 11.92C168.993 12.6933 169.273 13.52 169.273 14.4C169.273 15.1467 169.046 15.72 168.593 16.12C168.166 16.52 167.606 16.72 166.913 16.72C166.166 16.72 165.553 16.4533 165.073 15.92C164.619 15.3867 164.353 14.7067 164.273 13.88C164.246 13.3467 164.246 12.8933 164.273 12.52C164.326 12.1467 164.326 11.7867 164.273 11.44C164.166 10.9867 163.979 10.68 163.713 10.52C163.473 10.36 163.126 10.28 162.673 10.28C160.993 10.28 159.699 10.96 158.793 12.32C157.913 13.6533 157.473 15.8267 157.473 18.84C157.473 21.4267 157.966 23.4133 158.953 24.8C159.939 26.1867 161.473 26.88 163.553 26.88C164.779 26.88 165.793 26.6533 166.593 26.2C167.393 25.72 168.126 25.04 168.793 24.16L169.433 24.64C168.766 26.24 167.739 27.4667 166.353 28.32C164.993 29.1467 163.366 29.56 161.473 29.56ZM176.686 29.56C175.646 29.56 174.699 29.3733 173.846 29C172.993 28.6 172.313 27.96 171.806 27.08C171.326 26.1733 171.099 24.9867 171.126 23.52L171.246 13.48C171.246 12.8933 171.153 12.4667 170.966 12.2C170.779 11.9333 170.446 11.7467 169.966 11.64L169.486 11.48V10.76L176.326 9.44L176.766 9.88L176.566 15.52V24.6C176.566 25.5067 176.806 26.1733 177.286 26.6C177.793 27 178.419 27.2 179.166 27.2C179.939 27.2 180.633 27.0933 181.246 26.88C181.886 26.64 182.539 26.2933 183.206 25.84L183.326 13.52C183.326 12.9067 183.233 12.48 183.046 12.24C182.886 12 182.566 11.8133 182.086 11.68L181.646 11.56V10.84L188.326 9.44L188.766 9.88L188.646 15.52V26C188.646 26.56 188.713 27.0133 188.846 27.36C189.006 27.68 189.339 27.92 189.846 28.08L190.366 28.24V29L183.606 29.4L183.246 26.88C182.339 27.6533 181.353 28.2933 180.286 28.8C179.219 29.3067 178.019 29.56 176.686 29.56ZM190.467 29V28.24L191.067 28.08C191.947 27.7867 192.387 27.12 192.387 26.08C192.387 25.1733 192.387 24.2667 192.387 23.36C192.414 22.4267 192.427 21.5067 192.427 20.6V5.4C192.427 4.84 192.334 4.42667 192.147 4.16C191.96 3.86667 191.6 3.65333 191.067 3.52L190.467 3.36V2.6L197.467 0.919999L197.987 1.28L197.827 6.92V26.08C197.854 26.6133 197.96 27.0533 198.147 27.4C198.36 27.72 198.72 27.9467 199.227 28.08L199.787 28.24V29H190.467ZM205.407 29.56C203.887 29.56 202.594 29.1333 201.527 28.28C200.487 27.4 199.967 26.1467 199.967 24.52C199.967 23.24 200.581 22.0667 201.807 21C203.061 19.9067 205.021 19.1067 207.687 18.6C208.141 18.4933 208.661 18.4 209.247 18.32C209.861 18.2133 210.461 18.1067 211.047 18V15.16C211.047 13.3467 210.821 12.0933 210.367 11.4C209.914 10.7067 209.194 10.36 208.207 10.36H208.087C207.474 10.36 206.981 10.56 206.607 10.96C206.261 11.3333 206.034 11.96 205.927 12.84L205.807 13.36C205.727 14.4267 205.447 15.2133 204.967 15.72C204.487 16.2 203.887 16.44 203.167 16.44C202.501 16.44 201.941 16.24 201.487 15.84C201.061 15.4133 200.847 14.8667 200.847 14.2C200.847 13.1067 201.221 12.1867 201.967 11.44C202.714 10.6933 203.701 10.1333 204.927 9.76C206.181 9.38667 207.527 9.2 208.967 9.2C211.341 9.2 213.154 9.77333 214.407 10.92C215.661 12.0667 216.287 13.9333 216.287 16.52V25.44C216.287 26.5867 216.834 27.16 217.927 27.16H218.847L219.247 27.6C218.767 28.2133 218.234 28.68 217.647 29C217.061 29.3467 216.261 29.52 215.247 29.52C214.101 29.52 213.181 29.2533 212.487 28.72C211.821 28.16 211.381 27.4267 211.167 26.52C210.314 27.4267 209.474 28.16 208.647 28.72C207.821 29.28 206.741 29.56 205.407 29.56ZM207.727 27C208.261 27 208.767 26.88 209.247 26.64C209.727 26.4 210.327 26 211.047 25.44V19.04C210.354 19.1467 209.647 19.28 208.927 19.44C207.781 19.7067 206.847 20.2 206.127 20.92C205.434 21.64 205.087 22.6133 205.087 23.84C205.087 24.9067 205.327 25.7067 205.807 26.24C206.314 26.7467 206.954 27 207.727 27ZM226.074 29.56C224.421 29.56 223.114 29.16 222.154 28.36C221.221 27.5333 220.754 26.2 220.754 24.36C220.754 23.72 220.754 23.12 220.754 22.56C220.781 21.9733 220.794 21.2933 220.794 20.52V11.04H217.954V10.16L219.034 10C219.807 9.86667 220.461 9.62667 220.994 9.28C221.554 8.93333 222.061 8.45333 222.514 7.84L225.114 4.24H226.314L226.194 9.8H230.754V11.04H226.154V24.68C226.154 25.64 226.354 26.36 226.754 26.84C227.181 27.32 227.701 27.56 228.314 27.56C228.847 27.56 229.327 27.44 229.754 27.2C230.181 26.9333 230.607 26.5867 231.034 26.16L231.554 26.76C231.047 27.64 230.341 28.3333 229.434 28.84C228.527 29.32 227.407 29.56 226.074 29.56ZM241.212 29.56C239.239 29.56 237.505 29.1467 236.012 28.32C234.545 27.4933 233.399 26.32 232.572 24.8C231.772 23.28 231.372 21.4667 231.372 19.36C231.372 17.2533 231.799 15.44 232.652 13.92C233.532 12.4 234.705 11.24 236.172 10.44C237.665 9.61333 239.345 9.2 241.212 9.2C243.079 9.2 244.745 9.61333 246.212 10.44C247.705 11.24 248.879 12.4 249.732 13.92C250.612 15.4133 251.052 17.2267 251.052 19.36C251.052 21.4667 250.639 23.2933 249.812 24.84C249.012 26.36 247.879 27.5333 246.412 28.36C244.945 29.16 243.212 29.56 241.212 29.56ZM241.212 28.44C242.172 28.44 242.945 28.1867 243.532 27.68C244.145 27.1467 244.585 26.2267 244.852 24.92C245.119 23.6133 245.252 21.7867 245.252 19.44C245.252 17.0667 245.119 15.2267 244.852 13.92C244.585 12.5867 244.145 11.6667 243.532 11.16C242.945 10.6267 242.172 10.36 241.212 10.36C240.252 10.36 239.479 10.6267 238.892 11.16C238.305 11.6667 237.865 12.5867 237.572 13.92C237.305 15.2267 237.172 17.0667 237.172 19.44C237.172 21.7867 237.305 23.6133 237.572 24.92C237.865 26.2267 238.305 27.1467 238.892 27.68C239.479 28.1867 240.252 28.44 241.212 28.44ZM251.292 29V28.24L251.892 28.04C252.425 27.9067 252.785 27.68 252.972 27.36C253.185 27.04 253.292 26.6133 253.292 26.08V14.36C253.265 13.7733 253.158 13.3333 252.972 13.04C252.785 12.72 252.425 12.5067 251.892 12.4L251.292 12.24V11.52L257.812 9.2L258.292 9.64L258.652 13.16V13.44C259.052 12.6933 259.558 12 260.172 11.36C260.785 10.72 261.452 10.2 262.172 9.8C262.892 9.4 263.612 9.2 264.332 9.2C265.345 9.2 266.105 9.46667 266.612 10C267.118 10.5333 267.372 11.2133 267.372 12.04C267.372 12.9467 267.118 13.64 266.612 14.12C266.105 14.5733 265.492 14.8 264.772 14.8C263.705 14.8 262.785 14.32 262.012 13.36L261.932 13.28C261.665 12.96 261.358 12.7867 261.012 12.76C260.692 12.7067 260.372 12.8667 260.052 13.24C259.785 13.5067 259.532 13.8267 259.292 14.2C259.078 14.5467 258.878 14.96 258.692 15.44V25.92C258.692 26.4267 258.798 26.8533 259.012 27.2C259.225 27.52 259.585 27.7467 260.092 27.88L261.292 28.24V29H251.292Z" fill="white"/>
</svg>
