<?xml version="1.0" encoding="UTF-8" standalone="no"?>
<svg
   width="96"
   height="96"
   viewBox="0 0 96 96"
   version="1.1"
   xml:space="preserve"
   stroke="currentColor"
   fill="currentColor"
   id="svg18"
   xmlns="http://www.w3.org/2000/svg"
   xmlns:svg="http://www.w3.org/2000/svg"><defs
   id="defs22"
 />
 <g
   id="g16"
   transform="matrix(0.20058165,0,0,0.20058165,0.69478758,16.408483)">
  <title
   id="title2">Layer 1</title>
  <g
   id="svg_12">
   <circle
   id="svg_1"
   stroke-miterlimit="10"
   stroke-width="10"
   fill="none"
   r="58.5"
   cy="64.5"
   cx="238.5"
    />
   <line
   id="svg_2"
   stroke-miterlimit="10"
   stroke-width="10"
   fill="none"
   y2="282"
   x2="93"
   y1="95.400002"
   x1="188.8"
    />
   <line
   id="svg_3"
   stroke-miterlimit="10"
   stroke-width="10"
   fill="none"
   y2="282"
   x2="385"
   y1="95"
   x1="289"
    />
   <g
   id="svg_4">
    <polygon
   id="svg_5"
   stroke-miterlimit="10"
   points="413.10001,331.39999 407.10001,331.39999 440.10001,283.39999 446.10001,283.39999 "
    />
    <polygon
   id="svg_6"
   stroke-miterlimit="10"
   points="173.89999,331.39999 167.89999,331.39999 200.89999,283.39999 206.89999,283.39999 "
    />
    <polygon
   id="svg_7"
   stroke-miterlimit="10"
   points="254.60001,331.39999 248.60001,331.39999 281.60001,283.39999 287.60001,283.39999 "
    />
    <polygon
   id="svg_8"
   stroke-miterlimit="10"
   points="333,331.29999 327,331.29999 360,283.29999 366,283.29999 "
    />
    <polygon
   id="svg_9"
   stroke-miterlimit="10"
   points="93.300003,331.39999 87.300003,331.39999 120.3,283.39999 126.3,283.39999 "
    />
    <polygon
   id="svg_10"
   stroke-miterlimit="10"
   points="12.700001,331.39999 6.7000008,331.39999 39.700001,283.39999 45.700001,283.39999 "
    />
    <line
   id="svg_11"
   stroke-miterlimit="10"
   stroke-width="10"
   fill="none"
   y2="282.39999"
   x2="467.60001"
   y1="282.39999"
   x1="2.9000001"
    />
   </g>
  </g>
 </g>
</svg>
