<?xml version="1.0" encoding="UTF-8" standalone="no"?>
<svg
   width="96"
   height="96"
   viewBox="0 0 96 96"
   version="1.1"
   stroke="currentColor"
   fill="currentColor"
   xml:space="preserve"
   id="svg31"
   xmlns="http://www.w3.org/2000/svg"
   xmlns:svg="http://www.w3.org/2000/svg"><defs
   id="defs35"
   />

 <g
   id="g29"
   transform="matrix(0.20618019,0,0,0.20618019,-0.51545048,9.9166955)">
  <title
   id="title2">Layer 1</title>
  <g
   id="svg_25">
   <g
   id="svg_1"
   display="none"
   class="st0">
    <line
   id="svg_2"
   stroke-miterlimit="10"
   stroke-width="10"
   fill="none"
   display="inline"
   y2="314.5"
   x2="467.20001"
   y1="314.5"
   x1="2.5"
   class="st1" />
    <polygon
   id="svg_3"
   stroke-miterlimit="10"
   stroke-width="2"
   display="inline"
   points="28.5,315.5 -4.5,363.5 -10.5,363.5 22.5,315.5 "
   class="st2" />
    <polygon
   id="svg_4"
   stroke-miterlimit="10"
   stroke-width="2"
   display="inline"
   points="75.400002,315.5 42.400002,363.5 36.400002,363.5 69.400002,315.5 "
   class="st2" />
    <polygon
   id="svg_5"
   stroke-miterlimit="10"
   stroke-width="2"
   display="inline"
   points="122.39999,315.5 89.400002,363.5 83.400002,363.5 116.39999,315.5 "
   class="st2" />
    <polygon
   id="svg_6"
   stroke-miterlimit="10"
   stroke-width="2"
   display="inline"
   points="169.10001,314.5 136.10001,362.5 130.10001,362.5 163.10001,314.5 "
   class="st2" />
    <polygon
   id="svg_7"
   stroke-miterlimit="10"
   stroke-width="2"
   display="inline"
   points="216.10001,314.5 183.10001,362.5 177.10001,362.5 210.10001,314.5 "
   class="st2" />
    <polygon
   id="svg_8"
   stroke-miterlimit="10"
   stroke-width="2"
   display="inline"
   points="263.5,314.5 230.5,362.5 224.5,362.5 257.5,314.5 "
   class="st2" />
    <polygon
   id="svg_9"
   stroke-miterlimit="10"
   stroke-width="2"
   display="inline"
   points="312.39999,314.5 279.39999,362.5 273.39999,362.5 306.39999,314.5 "
   class="st2" />
    <polygon
   id="svg_10"
   stroke-miterlimit="10"
   stroke-width="2"
   display="inline"
   points="361.20001,314.5 328.20001,362.5 322.20001,362.5 355.20001,314.5 "
   class="st2" />
    <polygon
   id="svg_11"
   stroke-miterlimit="10"
   stroke-width="2"
   display="inline"
   points="409.89999,314.5 376.89999,362.5 370.89999,362.5 403.89999,314.5 "
   class="st2" />
    <polygon
   id="svg_12"
   stroke-miterlimit="10"
   stroke-width="2"
   display="inline"
   points="460.89999,314.5 427.89999,362.5 421.89999,362.5 454.89999,314.5 "
   class="st2" />
   </g>
   <circle
   id="svg_13"
   stroke-miterlimit="10"
   stroke-width="10"
   fill="none"
   r="58.5"
   cy="64.5"
   cx="236.5"
   class="st3" />
   <circle
   id="svg_14"
   stroke-miterlimit="10"
   stroke-width="10"
   fill="none"
   r="58.5"
   cy="248.5"
   cx="236.5"
   class="st3" />
   <path
   id="svg_15"
   stroke-miterlimit="10"
   stroke-width="10"
   fill="none"
   d="M 236,192"
   class="st3" />
   <line
   id="svg_16"
   stroke-miterlimit="10"
   stroke-width="10"
   fill="none"
   y2="190"
   x2="236.5"
   y1="123"
   x1="236.5"
   class="st3" />
   <g
   id="svg_17">
    <polygon
   id="svg_18"
   stroke-miterlimit="10"
   points="446.89999,316.39999 413.89999,364.39999 407.89999,364.39999 440.89999,316.39999 "
   class="st4" />
    <polygon
   id="svg_19"
   stroke-miterlimit="10"
   points="207.7,316.39999 174.7,364.39999 168.7,364.39999 201.7,316.39999 "
   class="st4" />
    <polygon
   id="svg_20"
   stroke-miterlimit="10"
   points="288.29999,316.39999 255.29999,364.39999 249.29999,364.39999 282.29999,316.39999 "
   class="st4" />
    <polygon
   id="svg_21"
   stroke-miterlimit="10"
   points="366.79999,316.29999 333.79999,364.29999 327.79999,364.29999 360.79999,316.29999 "
   class="st4" />
    <polygon
   id="svg_22"
   stroke-miterlimit="10"
   points="127.10001,316.39999 94.099998,364.39999 88.099998,364.39999 121.10001,316.39999 "
   class="st4" />
    <polygon
   id="svg_23"
   stroke-miterlimit="10"
   points="46.400002,316.39999 13.4,364.39999 7.3999996,364.39999 40.400002,316.39999 "
   class="st4" />
    <line
   id="svg_24"
   stroke-miterlimit="10"
   stroke-width="10"
   fill="none"
   y2="315.39999"
   x2="468.39999"
   y1="315.39999"
   x1="3.5999999"
   class="st3" />
   </g>
  </g>
 </g>
</svg>
