<?xml version="1.0" encoding="utf-8"?>
<!-- Generator: Adobe Illustrator 27.0.0, SVG Export Plug-In . SVG Version: 6.00 Build 0)  -->
<svg version="1.1" xmlns="http://www.w3.org/2000/svg" xmlns:xlink="http://www.w3.org/1999/xlink" x="0px" y="0px"
	 viewBox="0 0 500 500" style="enable-background:new 0 0 500 500;" xml:space="preserve">
<style type="text/css">
	.st0{fill:black;stroke:currentColor;stroke-width:60;stroke-miterlimit:10;}
	.st1{fill:none;stroke:currentColor;stroke-width:120;stroke-miterlimit:10;}
	.st2{fill:none;stroke:currentColor;stroke-width:3;stroke-miterlimit:10;}
	.st3{fill:none;stroke:currentColor;stroke-width:30;stroke-miterlimit:10;}
</style>
<circle class="st0" cx="250.2" cy="250.24" r="219.92"/>
<g>
	<g id="">
	</g>
	<g id="">
		<path class="st1" d="M4.92,493.8"/>
		<path class="st1" d="M506.04-3.72"/>
	</g>
	<g id="">
		<g id="">
			<path class="st2" d="M314.34-254.28"/>
			<path class="st3" d="M62.83-3.72"/>
			<path class="st3" d="M0.5,58.38"/>
			<path class="st3" d="M0.5,58.38"/>
			<path class="st2" d="M-196.14,254.28"/>
			<path class="st2" d="M376.67-188.59"/>
			<path class="st3" d="M186.87,0.5"/>
			<path class="st3" d="M0.5,186.17"/>
			<path class="st3" d="M0.5,186.17"/>
			<path class="st2" d="M439-122.89"/>
			<path class="st3" d="M315.14,0.5"/>
			
				<line class="st3" x1="33.81" y1="280.77" x2="282.8" y2="32.72"/>
			<path class="st3" d="M33.81,280.77"/>
			<path class="st3" d="M0.5,313.96"/>
			<path class="st3" d="M0.5,313.96"/>
			<path class="st2" d="M501.32-57.2"/>
			<path class="st3" d="M443.4,0.5"/>
			<path class="st3" d="M374.71,68.94"/>
			
				<line class="st3" x1="68.42" y1="374.07" x2="374.71" y2="68.94"/>
			<path class="st3" d="M68.42,374.07"/>
			<path class="st3" d="M0.5,441.74"/>
			<path class="st3" d="M0.5,441.74"/>
			<path class="st3" d="M563.65,8.5"/>
			<path class="st3" d="M501.32,70.6"/>
			<path class="st3" d="M443.4,128.3"/>
			
				<line class="st3" x1="133.71" y1="436.82" x2="443.4" y2="128.3"/>
			<path class="st3" d="M133.71,436.82"/>
			<path class="st3" d="M68.02,502.26"/>
			<path class="st3" d="M68.02,502.26"/>
			<path class="st2" d="M625.98,74.19"/>
			<path class="st3" d="M501.32,198.38"/>
			<path class="st3" d="M469.23,230.35"/>
			
				<line class="st3" x1="229.48" y1="469.2" x2="469.23" y2="230.35"/>
			<path class="st3" d="M229.48,469.2"/>
			<path class="st3" d="M196.29,502.26"/>
			<path class="st3" d="M196.29,502.26"/>
			<path class="st2" d="M688.3,139.89"/>
			<path class="st3" d="M502.31,325.18"/>
			<path class="st3" d="M322.69,504.13"/>
			<path class="st3" d="M322.69,504.13"/>
			<path class="st2" d="M750.63,205.58"/>
			<path class="st3" d="M502.31,452.97"/>
			<path class="st3" d="M452.83,502.26"/>
			<path class="st3" d="M452.83,502.26"/>
		</g>
	</g>
</g>
</svg>
