<svg width="32" height="32" viewBox="0 0 32 32" fill="none" xmlns="http://www.w3.org/2000/svg">
<path d="M20.4737 13.7073L19.5661 11.9408C19.4776 11.7685 19.4965 11.5606 19.6148 11.4071L20.7281 9.96261C20.8831 9.7615 20.8627 9.47615 20.6807 9.29907L18.6201 7.29371C18.4691 7.14674 18.2421 7.11024 18.0526 7.20244L16.4819 7.96672C16.3438 8.03392 16.1825 8.03392 16.0444 7.96672L14.3659 7.14997C14.2339 7.08578 14.1369 6.96688 14.1004 6.82478L13.7281 5.37559C13.6713 5.15454 13.472 5 13.2438 5H10.3352C10.1069 5 9.90767 5.15454 9.85088 5.37559L9.49568 6.75827C9.44975 6.93709 9.309 7.07604 9.12961 7.11969L7.43399 7.53222C7.35632 7.55111 7.27526 7.55111 7.19759 7.53222L5.47924 7.11416C5.31204 7.07348 5.13566 7.12164 5.01233 7.24166L2.88064 9.31615C2.7063 9.48582 2.67938 9.75636 2.81687 9.95706L3.50334 10.9591C3.58483 11.0781 3.611 11.2265 3.57512 11.3661L3.17989 12.9046C3.13396 13.0834 2.99321 13.2224 2.81382 13.266L1.3818 13.6144C1.15772 13.6689 1 13.8696 1 14.1003V16.8997C1 17.1304 1.15772 17.3311 1.3818 17.3856L2.88318 17.7508C3.02422 17.7852 3.14338 17.8791 3.20972 18.0082L4.0405 19.6252C4.11418 19.7686 4.11418 19.9387 4.0405 20.0822L3.27426 21.5735C3.17384 21.769 3.2128 22.0071 3.37028 22.1603L5.48516 24.2185C5.63618 24.3655 5.86314 24.402 6.05264 24.3098L7.66082 23.5272C7.77713 23.4706 7.91084 23.4613 8.03387 23.5012L9.15948 23.8664C9.32236 23.9192 9.44687 24.0517 9.48947 24.2176L9.85088 25.6244C9.90767 25.8455 10.1069 26 10.3352 26H12.0526" stroke="currentColor" stroke-width="1.5"/>
<circle cx="11.5" cy="15.5" r="4" stroke="currentColor"/>
<path d="M15.0784 20.9216L26.6464 9.35355C26.8417 9.15829 27.1583 9.15829 27.3536 9.35355L30.1464 12.1464C30.3417 12.3417 30.3417 12.6583 30.1464 12.8536L18.5784 24.4216C18.5268 24.4732 18.4644 24.5129 18.3958 24.5379L14.0069 26.1338C13.6079 26.2789 13.2211 25.8921 13.3662 25.4931L14.9621 21.1042C14.9871 21.0356 15.0268 20.9732 15.0784 20.9216Z" stroke="currentColor" stroke-width="1.5"/>
<path d="M24.5 11.5L28 15" stroke="currentColor"/>
<path d="M16 20.5L19.5 24" stroke="currentColor"/>
</svg>
