<?xml version="1.0" encoding="utf-8"?>
<!-- Generator: Adobe Illustrator 27.0.0, SVG Export Plug-In . SVG Version: 6.00 Build 0)  -->
<svg version="1.1" id="Слой_1" xmlns="http://www.w3.org/2000/svg" xmlns:xlink="http://www.w3.org/1999/xlink" x="0px" y="0px"
	 viewBox="0 0 500 500" style="enable-background:new 0 0 500 500;" xml:space="preserve">
<style type="text/css">
	.st0{fill:none;stroke:currentColor;stroke-width:3;stroke-miterlimit:10;}
	.st1{fill:none;stroke:currentColor;stroke-width:30;stroke-miterlimit:10;}
	.st2{fill:none;stroke:currentColor;stroke-width:60;stroke-miterlimit:10;}
</style>
<g>
	<g>
	</g>
	<g id="Слой_3">
		<g id="svg_5">
			<path class="st0" d="M314.3-254.3"/>
			<path class="st1" d="M62.8-3.7"/>
			<path class="st1" d="M0.5,58.4"/>
			<path class="st1" d="M0.5,58.4"/>
			<path class="st0" d="M-196.1,254.3"/>
			<path class="st0" d="M376.7-188.6"/>
			<path class="st1" d="M185.2,0.8"/>
			<path class="st1" d="M151.5,34.4"/>
			<line class="st1" x1="62.8" y1="124.1" x2="153.1" y2="34.1"/>
			<path class="st1" d="M62.8,124.1"/>
			<path class="st1" d="M0.5,186.2"/>
			<path class="st1" d="M0.5,186.2"/>
			<path class="st0" d="M439-122.9"/>
			<path class="st1" d="M315.1,0.5"/>
			<path class="st1" d="M284.7,30.9"/>
			<line class="st1" x1="159.9" y1="155.1" x2="284.7" y2="30.9"/>
			<path class="st1" d="M159.9,155.1"/>
			<path class="st1" d="M0.5,314"/>
			<path class="st1" d="M0.5,314"/>
			<path class="st0" d="M501.3-57.2"/>
			<path class="st1" d="M443.4,0.5"/>
			<path class="st1" d="M414.9,28.9"/>
			<line class="st1" x1="184.5" y1="258.4" x2="414.9" y2="28.9"/>
			<path class="st1" d="M184.5,258.4"/>
			<path class="st1" d="M60.9,381.6"/>
			<path class="st1" d="M60.9,381.6"/>
			<path class="st1" d="M0.5,441.7"/>
			<path class="st1" d="M0.5,441.7"/>
			<path class="st1" d="M563.7,8.5"/>
			<path class="st1" d="M501.3,70.6"/>
			<path class="st1" d="M443.4,128.3"/>
			<path class="st1" d="M443.4,128.3"/>
			<path class="st1" d="M322.7,248.6"/>
			
				<line class="st1" x1="106.7" y1="463.8" x2="322.7" y2="248.6"/>
			<path class="st1" d="M106.7,463.8"/>
			<path class="st1" d="M68,502.3"/>
			<path class="st1" d="M68,502.3"/>
			<path class="st0" d="M626,74.2"/>
			<path class="st1" d="M501.3,198.4"/>
			<path class="st1" d="M348.8,350.3"/>
			
				<line class="st1" x1="231.7" y1="466.9" x2="348.8" y2="350.3"/>
			<path class="st1" d="M231.7,466.9"/>
			<path class="st1" d="M196.3,502.3"/>
			<path class="st1" d="M196.3,502.3"/>
			<path class="st0" d="M688.3,139.9"/>
			<path class="st1" d="M502.3,325.2"/>
			<path class="st1" d="M432.3,394.9"/>
			
				<line class="st1" x1="344.8" y1="482.1" x2="432.3" y2="394.9"/>
			<path class="st1" d="M344.8,482.1"/>
			<path class="st1" d="M322.7,504.1"/>
			<path class="st1" d="M322.7,504.1"/>
			<path class="st0" d="M750.6,205.6"/>
			<path class="st1" d="M502.3,453"/>
			<path class="st1" d="M452.8,502.3"/>
			<path class="st1" d="M452.8,502.3"/>
		</g>
	</g>
</g>
<polyline class="st2" points="70.7,34.1 429.3,34.1 429.3,146.5 315.5,146.5 315.5,353.5 429.3,353.5 429.3,465.9 70.7,465.9 "/>
<polyline class="st2" points="429.3,34.1 70.7,34.1 70.7,146.5 184.5,146.5 184.5,353.3 70.7,353.3 70.7,465.7 429.3,465.7 "/>
</svg>
