<?xml version="1.0" encoding="utf-8"?>
<!-- Generator: Adobe Illustrator 27.0.0, SVG Export Plug-In . SVG Version: 6.00 Build 0)  -->
<svg version="1.1" id="Слой_1" xmlns="http://www.w3.org/2000/svg" xmlns:xlink="http://www.w3.org/1999/xlink" x="0px" y="0px"
	 viewBox="0 0 500 500" style="enable-background:new 0 0 500 500;" xml:space="preserve">
<style type="text/css">
	.st0{fill:none;stroke:currentColor;stroke-width:120;stroke-miterlimit:10;}
	.st1{fill:none;stroke:currentColor;stroke-width:3;stroke-miterlimit:10;}
	.st2{fill:none;stroke:currentColor;stroke-width:30;stroke-miterlimit:10;}
</style>
<g>
	<g>
	</g>
	<g>
		<g id="svg_1">
			<polyline class="st0" points="308.41,0.5 500.5,0.5 
				500.5,500.5 0.5,500.5 0.5,53.88 0.5,0.5 308.41,0.5 			"/>
			<line class="st0" x1="308.41" y1="0.5" x2="315.14" y2="0.5"/>
		</g>
		<path class="st0" d="M4.92,493.8"/>
		<path class="st0" d="M506.04-3.72"/>
	</g>
	<g id="Слой_3">
		<g id="svg_5">
			<path class="st1" d="M314.34-254.28"/>
			<line class="st2" x1="0.5" y1="58.38" x2="62.83" y2="-3.72"/>
			<path class="st2" d="M0.5,58.38"/>
			<path class="st1" d="M-196.14,254.28"/>
			<path class="st1" d="M376.67-188.59"/>
			<line class="st2" x1="0.5" y1="186.17" x2="186.87" y2="0.5"/>
			<path class="st2" d="M0.5,186.17"/>
			<path class="st1" d="M439-122.89"/>
			<line class="st2" x1="0.5" y1="313.96" x2="315.14" y2="0.5"/>
			<path class="st2" d="M0.5,313.96"/>
			<path class="st1" d="M501.32-57.2"/>
			<line class="st2" x1="0.5" y1="441.74" x2="443.4" y2="0.5"/>
			<path class="st2" d="M0.5,441.74"/>
			<path class="st2" d="M563.65,8.5"/>
			
				<line class="st2" x1="68.02" y1="502.26" x2="501.32" y2="70.6"/>
			<path class="st2" d="M68.02,502.26"/>
			<path class="st1" d="M625.98,74.19"/>
			
				<line class="st2" x1="196.29" y1="502.26" x2="501.32" y2="198.38"/>
			<path class="st2" d="M196.29,502.26"/>
			<path class="st1" d="M688.3,139.89"/>
			
				<line class="st2" x1="322.69" y1="504.13" x2="502.31" y2="325.18"/>
			<path class="st2" d="M322.69,504.13"/>
			<path class="st1" d="M750.63,205.58"/>
			
				<line class="st2" x1="452.83" y1="502.26" x2="502.31" y2="452.97"/>
			<path class="st2" d="M452.83,502.26"/>
		</g>
	</g>
</g>
</svg>
