<svg width="150" height="17" viewBox="0 0 150 17" fill="inherit" xmlns="http://www.w3.org/2000/svg" class="beam-calc">
<path d="M3.9 1.48C5.36667 1.48 6.52 1.78 7.36 2.38C8.21333 2.98 8.64 3.9 8.64 5.14C8.64 5.94 8.45333 6.62667 8.08 7.2C7.72 7.77333 7.21333 8.22 6.56 8.54C5.92 8.84667 5.16 9.02 4.28 9.06L3.96 7.92C4.98667 7.94667 5.9 8.12667 6.7 8.46C7.51333 8.78 8.15333 9.23333 8.62 9.82C9.1 10.3933 9.34 11.08 9.34 11.88C9.34 12.6133 9.2 13.2467 8.92 13.78C8.65333 14.3 8.28667 14.7267 7.82 15.06C7.36667 15.38 6.84667 15.62 6.26 15.78C5.68667 15.9267 5.08667 16 4.46 16H0.0400001V1.48H3.9ZM4.28 7.76C5.02667 7.76 5.57333 7.54667 5.92 7.12C6.26667 6.69333 6.44 6.18667 6.44 5.6C6.44 4.88 6.21333 4.36 5.76 4.04C5.32 3.70667 4.73333 3.54 4 3.54H2.18V7.76H4.28ZM4.36 14.02C4.88 14.02 5.34667 13.9467 5.76 13.8C6.18667 13.64 6.52 13.4067 6.76 13.1C7.01333 12.78 7.14 12.38 7.14 11.9C7.14 11.3667 6.99333 10.9533 6.7 10.66C6.42 10.3533 6.05333 10.14 5.6 10.02C5.16 9.88667 4.7 9.82 4.22 9.82H2.18V14.02H4.36ZM16.0005 16.2C15.0271 16.2 14.1938 16.0133 13.5005 15.64C12.8071 15.2533 12.2738 14.7267 11.9005 14.06C11.5271 13.38 11.3405 12.6067 11.3405 11.74C11.3405 10.9133 11.5471 10.1667 11.9605 9.5C12.3871 8.82 12.9538 8.28 13.6605 7.88C14.3805 7.48 15.1738 7.28 16.0405 7.28C17.1605 7.28 18.0871 7.60667 18.8205 8.26C19.5671 8.91333 20.0671 9.82667 20.3205 11L13.5005 13.36L13.0205 12.16L18.4805 10.2L18.0605 10.46C17.9005 10.0467 17.6471 9.68667 17.3005 9.38C16.9538 9.06 16.4805 8.9 15.8805 8.9C15.4005 8.9 14.9671 9.02 14.5805 9.26C14.2071 9.48667 13.9071 9.80667 13.6805 10.22C13.4671 10.62 13.3605 11.0933 13.3605 11.64C13.3605 12.2 13.4738 12.6933 13.7005 13.12C13.9405 13.5333 14.2605 13.86 14.6605 14.1C15.0738 14.34 15.5338 14.46 16.0405 14.46C16.4005 14.46 16.7405 14.3933 17.0605 14.26C17.3938 14.1267 17.7071 13.96 18.0005 13.76L18.9405 15.28C18.5005 15.56 18.0205 15.7867 17.5005 15.96C16.9938 16.12 16.4938 16.2 16.0005 16.2ZM26.1073 16.2C25.3207 16.2 24.6073 16.04 23.9673 15.72C23.3273 15.3867 22.8207 14.8933 22.4473 14.24C22.074 13.5867 21.8873 12.78 21.8873 11.82C21.8873 10.8733 22.0807 10.06 22.4673 9.38C22.8673 8.7 23.3873 8.18 24.0273 7.82C24.6807 7.44667 25.3873 7.26 26.1473 7.26C26.9473 7.26 27.6007 7.43333 28.1073 7.78C28.6273 8.11333 29.034 8.50667 29.3273 8.96L29.1873 9.28L29.3873 7.62H31.2873V16H29.2273V13.9L29.4473 14.4C29.394 14.5067 29.2807 14.66 29.1073 14.86C28.934 15.0467 28.7007 15.2467 28.4073 15.46C28.1273 15.6733 27.794 15.8533 27.4073 16C27.034 16.1333 26.6007 16.2 26.1073 16.2ZM26.6673 14.52C27.1073 14.52 27.5007 14.44 27.8473 14.28C28.194 14.12 28.4873 13.8933 28.7273 13.6C28.9673 13.3067 29.134 12.96 29.2273 12.56V10.82C29.1207 10.4467 28.9407 10.1267 28.6873 9.86C28.434 9.58 28.1273 9.36 27.7673 9.2C27.4207 9.04 27.034 8.96 26.6073 8.96C26.1273 8.96 25.6873 9.08 25.2873 9.32C24.8873 9.54667 24.5673 9.86667 24.3273 10.28C24.0873 10.6933 23.9673 11.1733 23.9673 11.72C23.9673 12.24 24.0873 12.7133 24.3273 13.14C24.5807 13.5667 24.914 13.9067 25.3273 14.16C25.7407 14.4 26.1873 14.52 26.6673 14.52ZM36.2833 7.62L36.4633 9.42L36.3833 9.28C36.7033 8.65333 37.1433 8.16667 37.7033 7.82C38.2633 7.46 38.9099 7.28 39.6433 7.28C40.0966 7.28 40.5033 7.35333 40.8633 7.5C41.2366 7.64667 41.5433 7.85333 41.7833 8.12C42.0233 8.38667 42.1766 8.72 42.2433 9.12L42.1433 9.18C42.4766 8.59333 42.9166 8.13333 43.4633 7.8C44.0233 7.45333 44.6166 7.28 45.2433 7.28C46.0566 7.28 46.7033 7.51333 47.1833 7.98C47.6766 8.44667 47.9299 9.04667 47.9433 9.78V16H45.9033V10.56C45.8899 10.1467 45.7899 9.8 45.6033 9.52C45.4299 9.24 45.1166 9.08667 44.6633 9.06C44.1833 9.06 43.7566 9.20667 43.3833 9.5C43.0233 9.79333 42.7433 10.1733 42.5433 10.64C42.3433 11.1067 42.2366 11.6067 42.2233 12.14V16H40.1633V10.56C40.1499 10.1467 40.0499 9.8 39.8633 9.52C39.6766 9.24 39.3499 9.08667 38.8833 9.06C38.4033 9.06 37.9833 9.20667 37.6233 9.5C37.2633 9.79333 36.9833 10.18 36.7833 10.66C36.5966 11.1267 36.5033 11.62 36.5033 12.14V16H34.4433V7.62H36.2833ZM68.6306 14.9C68.4173 15.0467 68.0973 15.2267 67.6706 15.44C67.2573 15.64 66.764 15.8133 66.1906 15.96C65.6306 16.1067 65.0106 16.1733 64.3306 16.16C63.1973 16.1467 62.1773 15.9467 61.2706 15.56C60.3773 15.1733 59.6173 14.6467 58.9906 13.98C58.364 13.3 57.8773 12.5267 57.5306 11.66C57.1973 10.78 57.0306 9.84667 57.0306 8.86C57.0306 7.76667 57.204 6.76667 57.5506 5.86C57.8973 4.94 58.3906 4.14 59.0306 3.46C59.684 2.78 60.444 2.25333 61.3106 1.88C62.1906 1.50667 63.1506 1.32 64.1906 1.32C65.084 1.32 65.8906 1.44 66.6106 1.68C67.3306 1.92 67.9373 2.2 68.4306 2.52L67.5906 4.52C67.204 4.25333 66.724 4 66.1506 3.76C65.5906 3.50667 64.964 3.38 64.2706 3.38C63.5906 3.38 62.944 3.52 62.3306 3.8C61.7306 4.06667 61.1973 4.44667 60.7306 4.94C60.2773 5.42 59.9173 5.98667 59.6506 6.64C59.384 7.28 59.2506 7.98 59.2506 8.74C59.2506 9.51333 59.3706 10.2267 59.6106 10.88C59.8506 11.5333 60.1906 12.1 60.6306 12.58C61.084 13.06 61.624 13.4333 62.2506 13.7C62.8773 13.9667 63.584 14.1 64.3706 14.1C65.1173 14.1 65.7706 13.9867 66.3306 13.76C66.904 13.5333 67.3706 13.2733 67.7306 12.98L68.6306 14.9ZM74.8769 16.2C74.0902 16.2 73.3769 16.04 72.7369 15.72C72.0969 15.3867 71.5902 14.8933 71.2169 14.24C70.8435 13.5867 70.6569 12.78 70.6569 11.82C70.6569 10.8733 70.8502 10.06 71.2369 9.38C71.6369 8.7 72.1569 8.18 72.7969 7.82C73.4502 7.44667 74.1569 7.26 74.9169 7.26C75.7169 7.26 76.3702 7.43333 76.8769 7.78C77.3969 8.11333 77.8035 8.50667 78.0969 8.96L77.9569 9.28L78.1569 7.62H80.0569V16H77.9969V13.9L78.2169 14.4C78.1635 14.5067 78.0502 14.66 77.8769 14.86C77.7035 15.0467 77.4702 15.2467 77.1769 15.46C76.8969 15.6733 76.5635 15.8533 76.1769 16C75.8035 16.1333 75.3702 16.2 74.8769 16.2ZM75.4369 14.52C75.8769 14.52 76.2702 14.44 76.6169 14.28C76.9635 14.12 77.2569 13.8933 77.4969 13.6C77.7369 13.3067 77.9035 12.96 77.9969 12.56V10.82C77.8902 10.4467 77.7102 10.1267 77.4569 9.86C77.2035 9.58 76.8969 9.36 76.5369 9.2C76.1902 9.04 75.8035 8.96 75.3769 8.96C74.8969 8.96 74.4569 9.08 74.0569 9.32C73.6569 9.54667 73.3369 9.86667 73.0969 10.28C72.8569 10.6933 72.7369 11.1733 72.7369 11.72C72.7369 12.24 72.8569 12.7133 73.0969 13.14C73.3502 13.5667 73.6835 13.9067 74.0969 14.16C74.5102 14.4 74.9569 14.52 75.4369 14.52ZM83.2128 0.46H85.2728V16H83.2128V0.46ZM95.2681 15.22C94.8948 15.5267 94.4415 15.7667 93.9081 15.94C93.3881 16.1133 92.8615 16.2 92.3281 16.2C91.4081 16.2 90.5948 16.02 89.8881 15.66C89.1948 15.3 88.6548 14.7933 88.2681 14.14C87.8815 13.4867 87.6881 12.7067 87.6881 11.8C87.6881 10.9067 87.8948 10.1333 88.3081 9.48C88.7215 8.81333 89.2681 8.30667 89.9481 7.96C90.6281 7.6 91.3481 7.42 92.1081 7.42C92.8015 7.42 93.4148 7.51333 93.9481 7.7C94.4815 7.88667 94.9415 8.14667 95.3281 8.48L94.3081 9.82C94.0815 9.63333 93.7948 9.46667 93.4481 9.32C93.1148 9.17333 92.7281 9.1 92.2881 9.1C91.8215 9.1 91.3948 9.22 91.0081 9.46C90.6215 9.68667 90.3148 10.0067 90.0881 10.42C89.8615 10.82 89.7481 11.28 89.7481 11.8C89.7481 12.2933 89.8615 12.7533 90.0881 13.18C90.3281 13.5933 90.6548 13.92 91.0681 14.16C91.4815 14.4 91.9548 14.52 92.4881 14.52C92.8348 14.52 93.1548 14.4733 93.4481 14.38C93.7415 14.2733 94.0015 14.1267 94.2281 13.94L95.2681 15.22ZM100.307 16.34C99.5335 16.34 98.9002 16.1067 98.4069 15.64C97.9135 15.1733 97.6535 14.5733 97.6269 13.84V7.62H99.6869V13.1C99.7135 13.5267 99.8335 13.88 100.047 14.16C100.274 14.4267 100.634 14.5667 101.127 14.58C101.58 14.58 101.98 14.4467 102.327 14.18C102.687 13.9 102.967 13.5267 103.167 13.06C103.38 12.58 103.487 12.0333 103.487 11.42V7.62H105.547V16H103.687L103.527 14.06L103.607 14.38C103.434 14.7533 103.187 15.0933 102.867 15.4C102.547 15.6933 102.167 15.92 101.727 16.08C101.287 16.2533 100.814 16.34 100.307 16.34ZM108.701 0.46H110.761V16H108.701V0.46ZM117.396 16.2C116.61 16.2 115.896 16.04 115.256 15.72C114.616 15.3867 114.11 14.8933 113.736 14.24C113.363 13.5867 113.176 12.78 113.176 11.82C113.176 10.8733 113.37 10.06 113.756 9.38C114.156 8.7 114.676 8.18 115.316 7.82C115.97 7.44667 116.676 7.26 117.436 7.26C118.236 7.26 118.89 7.43333 119.396 7.78C119.916 8.11333 120.323 8.50667 120.616 8.96L120.476 9.28L120.676 7.62H122.576V16H120.516V13.9L120.736 14.4C120.683 14.5067 120.57 14.66 120.396 14.86C120.223 15.0467 119.99 15.2467 119.696 15.46C119.416 15.6733 119.083 15.8533 118.696 16C118.323 16.1333 117.89 16.2 117.396 16.2ZM117.956 14.52C118.396 14.52 118.79 14.44 119.136 14.28C119.483 14.12 119.776 13.8933 120.016 13.6C120.256 13.3067 120.423 12.96 120.516 12.56V10.82C120.41 10.4467 120.23 10.1267 119.976 9.86C119.723 9.58 119.416 9.36 119.056 9.2C118.71 9.04 118.323 8.96 117.896 8.96C117.416 8.96 116.976 9.08 116.576 9.32C116.176 9.54667 115.856 9.86667 115.616 10.28C115.376 10.6933 115.256 11.1733 115.256 11.72C115.256 12.24 115.376 12.7133 115.616 13.14C115.87 13.5667 116.203 13.9067 116.616 14.16C117.03 14.4 117.476 14.52 117.956 14.52ZM126.532 3.94H128.592V7.64H130.832V9.26H128.592V16H126.532V9.26H125.052V7.64H126.532V3.94ZM132.337 11.72C132.337 10.88 132.537 10.1267 132.937 9.46C133.337 8.78 133.89 8.24667 134.597 7.86C135.303 7.47333 136.11 7.28 137.017 7.28C137.937 7.28 138.743 7.47333 139.437 7.86C140.13 8.24667 140.663 8.78 141.037 9.46C141.423 10.1267 141.617 10.88 141.617 11.72C141.617 12.56 141.423 13.32 141.037 14C140.663 14.68 140.13 15.22 139.437 15.62C138.743 16.0067 137.93 16.2 136.997 16.2C136.103 16.2 135.303 16.02 134.597 15.66C133.903 15.3 133.35 14.7867 132.937 14.12C132.537 13.44 132.337 12.64 132.337 11.72ZM134.417 11.74C134.417 12.26 134.53 12.7333 134.757 13.16C134.983 13.5733 135.29 13.9067 135.677 14.16C136.063 14.4 136.497 14.52 136.977 14.52C137.47 14.52 137.91 14.4 138.297 14.16C138.683 13.9067 138.983 13.5733 139.197 13.16C139.423 12.7333 139.537 12.26 139.537 11.74C139.537 11.22 139.423 10.7533 139.197 10.34C138.983 9.92667 138.683 9.59333 138.297 9.34C137.91 9.08667 137.47 8.96 136.977 8.96C136.483 8.96 136.043 9.08667 135.657 9.34C135.27 9.59333 134.963 9.93333 134.737 10.36C134.523 10.7733 134.417 11.2333 134.417 11.74ZM145.893 7.62L146.093 10.02L145.993 9.7C146.219 9.19333 146.539 8.76 146.953 8.4C147.366 8.04 147.793 7.76667 148.233 7.58C148.686 7.38 149.066 7.28 149.373 7.28L149.273 9.32C148.633 9.28 148.073 9.4 147.593 9.68C147.126 9.96 146.759 10.3333 146.493 10.8C146.226 11.2667 146.093 11.7667 146.093 12.3V16H144.053V7.62H145.893Z"/>
</svg>
