<svg width="60" height="44" viewBox="0 0 60 44" fill="none" xmlns="http://www.w3.org/2000/svg">
<path fill-rule="evenodd" clip-rule="evenodd" d="M0.0799103 12.7873L0.160076 29.5746L0.755183 31.335C1.8397 34.5428 3.02533 36.4537 5.37231 38.777C8.9713 42.3392 12.1473 43.7377 17.1568 43.9663C20.9016 44.1374 23.1648 43.6781 26.3716 42.0967C30.8014 39.9122 34.2628 35.6376 35.5186 30.8011C35.7948 29.7365 36.021 28.2253 36.021 27.4429C36.021 23.9003 37.093 21.1331 39.34 18.876C43.8422 14.3528 51.4538 14.7225 55.413 19.6566L56.4066 20.895L56.7163 19.9534C57.1337 18.6838 58.3934 16.2267 59.2778 14.9564L60 13.9188L58.7671 12.8947C51.02 6.45967 39.2631 7.46313 33.1134 15.0842C31.435 17.164 30.8576 18.1569 30.0694 20.318C29.3592 22.2656 29.2221 23.002 28.8874 26.6665C28.6839 28.8948 28.5095 29.5668 27.735 31.1109C26.6356 33.302 24.8825 34.9658 22.49 36.089C20.9462 36.8136 20.6348 36.8679 18.0223 36.8679C15.3822 36.8679 15.1144 36.8199 13.5545 36.0661C9.1684 33.9468 6.63376 29.274 7.40911 24.7363C8.20565 20.0741 11.6545 16.6457 16.3712 15.8271C20.1231 15.1762 24.631 16.9473 26.6972 19.8845L27.4181 20.9093L28.1332 19.1559C28.5267 18.1914 29.3232 16.6618 29.9035 15.7567C30.4838 14.8515 30.9201 14.0083 30.8731 13.8828C30.6926 13.4029 28.1754 11.5585 26.5813 10.7389C20.9986 7.86728 14.1486 7.9719 9.03181 11.0069C8.25569 11.4674 7.51966 11.8442 7.39635 11.8442C7.27202 11.8442 7.17194 8.30765 7.17194 3.92208V0H3.58597H0L0.0799103 12.7873ZM37.2845 32.8996C36.9171 34.0159 35.5058 36.7962 34.7598 37.8739C34.4724 38.2888 34.2365 38.6935 34.2357 38.773C34.2306 39.2138 37.8079 41.6674 39.5161 42.3947C45.9015 45.1139 52.7303 44.3111 58.1764 40.2015C58.9178 39.6419 59.5869 39.0846 59.6633 38.9629C59.7396 38.8414 59.3122 37.9808 58.7135 37.0502C58.1149 36.12 57.326 34.6055 56.9604 33.6842L56.2956 32.0095L55.6948 32.8732C54.8649 34.0665 52.393 35.8423 50.6353 36.5085C48.7307 37.2303 45.6559 37.2927 43.7406 36.6486C41.8958 36.0279 39.4954 34.3975 38.4597 33.0613L37.5975 31.9489L37.2845 32.8996Z" fill="#BDBDBD"/>
<path d="M34.7598 37.8739C35.5058 36.7963 36.9171 34.016 37.2845 32.8996L37.5975 31.949L38.4597 33.0613C39.4954 34.3975 41.8958 36.028 43.7406 36.6487C45.6559 37.2927 48.7307 37.2304 50.6353 36.5086C52.393 35.8424 54.8648 34.0666 55.6948 32.8732L56.2956 32.0096L56.9604 33.6843C57.326 34.6055 58.1148 36.12 58.7135 37.0503C59.3122 37.9808 59.7396 38.8414 59.6632 38.9629C59.5869 39.0846 58.9178 39.6419 58.1764 40.2015C52.7303 44.3112 45.9015 45.114 39.5161 42.3948C37.8079 41.6675 34.2306 39.2139 34.2357 38.773C34.2365 38.6936 34.4724 38.2889 34.7598 37.8739Z" fill="#828282"/>
</svg>
