<svg width="470" height="368" xmlns="http://www.w3.org/2000/svg" xml:space="preserve" version="1.1">

 <g>
  <title>Layer 1</title>
  <g id="svg_25">
   <g id="svg_1" display="none" class="st0">
    <line id="svg_2" stroke-miterlimit="10" stroke-width="10" stroke="#000000" fill="none" display="inline" y2="314.5" x2="467.2" y1="314.5" x1="2.5" class="st1"/>
    <polygon id="svg_3" stroke-miterlimit="10" stroke-width="2" stroke="#000000" display="inline" points="-4.5,363.5 -10.5,363.5 22.5,315.5 28.5,315.5 " class="st2"/>
    <polygon id="svg_4" stroke-miterlimit="10" stroke-width="2" stroke="#000000" display="inline" points="42.400001525878906,363.5 36.400001525878906,363.5 69.4000015258789,315.5 75.4000015258789,315.5 " class="st2"/>
    <polygon id="svg_5" stroke-miterlimit="10" stroke-width="2" stroke="#000000" display="inline" points="89.4000015258789,363.5 83.4000015258789,363.5 116.39999389648438,315.5 122.39999389648438,315.5 " class="st2"/>
    <polygon id="svg_6" stroke-miterlimit="10" stroke-width="2" stroke="#000000" display="inline" points="136.10000610351562,362.5 130.10000610351562,362.5 163.10000610351562,314.5 169.10000610351562,314.5 " class="st2"/>
    <polygon id="svg_7" stroke-miterlimit="10" stroke-width="2" stroke="#000000" display="inline" points="183.10000610351562,362.5 177.10000610351562,362.5 210.10000610351562,314.5 216.10000610351562,314.5 " class="st2"/>
    <polygon id="svg_8" stroke-miterlimit="10" stroke-width="2" stroke="#000000" display="inline" points="230.5,362.5 224.5,362.5 257.5,314.5 263.5,314.5 " class="st2"/>
    <polygon id="svg_9" stroke-miterlimit="10" stroke-width="2" stroke="#000000" display="inline" points="279.3999938964844,362.5 273.3999938964844,362.5 306.3999938964844,314.5 312.3999938964844,314.5 " class="st2"/>
    <polygon id="svg_10" stroke-miterlimit="10" stroke-width="2" stroke="#000000" display="inline" points="328.20001220703125,362.5 322.20001220703125,362.5 355.20001220703125,314.5 361.20001220703125,314.5 " class="st2"/>
    <polygon id="svg_11" stroke-miterlimit="10" stroke-width="2" stroke="#000000" display="inline" points="376.8999938964844,362.5 370.8999938964844,362.5 403.8999938964844,314.5 409.8999938964844,314.5 " class="st2"/>
    <polygon id="svg_12" stroke-miterlimit="10" stroke-width="2" stroke="#000000" display="inline" points="427.8999938964844,362.5 421.8999938964844,362.5 454.8999938964844,314.5 460.8999938964844,314.5 " class="st2"/>
   </g>
   <circle id="svg_13" stroke-miterlimit="10" stroke-width="10" stroke="#000000" fill="none" r="58.5" cy="64.5" cx="236.5" class="st3"/>
   <circle id="svg_14" stroke-miterlimit="10" stroke-width="10" stroke="#000000" fill="none" r="58.5" cy="248.5" cx="236.5" class="st3"/>
   <path id="svg_15" stroke-miterlimit="10" stroke-width="10" stroke="#000000" fill="none" d="m236,192" class="st3"/>
   <line id="svg_16" stroke-miterlimit="10" stroke-width="10" stroke="#000000" fill="none" y2="190" x2="236.5" y1="123" x1="236.5" class="st3"/>
   <g id="svg_17">
    <polygon id="svg_18" stroke-miterlimit="10" stroke="#000000" points="413.8999938964844,364.3999938964844 407.8999938964844,364.3999938964844 440.8999938964844,316.3999938964844 446.8999938964844,316.3999938964844 " class="st4"/>
    <polygon id="svg_19" stroke-miterlimit="10" stroke="#000000" points="174.6999969482422,364.3999938964844 168.6999969482422,364.3999938964844 201.6999969482422,316.3999938964844 207.6999969482422,316.3999938964844 " class="st4"/>
    <polygon id="svg_20" stroke-miterlimit="10" stroke="#000000" points="255.29998779296875,364.3999938964844 249.29998779296875,364.3999938964844 282.29998779296875,316.3999938964844 288.29998779296875,316.3999938964844 " class="st4"/>
    <polygon id="svg_21" stroke-miterlimit="10" stroke="#000000" points="333.79998779296875,364.29998779296875 327.79998779296875,364.29998779296875 360.79998779296875,316.29998779296875 366.79998779296875,316.29998779296875 " class="st4"/>
    <polygon id="svg_22" stroke-miterlimit="10" stroke="#000000" points="94.0999984741211,364.3999938964844 88.0999984741211,364.3999938964844 121.10000610351562,316.3999938964844 127.10000610351562,316.3999938964844 " class="st4"/>
    <polygon id="svg_23" stroke-miterlimit="10" stroke="#000000" points="13.399999618530273,364.3999938964844 7.399999618530273,364.3999938964844 40.400001525878906,316.3999938964844 46.400001525878906,316.3999938964844 " class="st4"/>
    <line id="svg_24" stroke-miterlimit="10" stroke-width="10" stroke="#000000" fill="none" y2="315.4" x2="468.4" y1="315.4" x1="3.6" class="st3"/>
   </g>
  </g>
 </g>
</svg>